HIERARCHY
ROOT Hips
{
	OFFSET 0.000000 0.000000 0.990480
	CHANNELS 6 Xposition Yposition Zposition Xrotation Yrotation Zrotation
	JOINT Spine
	{
		OFFSET 0.000000 0.000000 0.099820
		CHANNELS 6 Xposition Yposition Zposition Xrotation Yrotation Zrotation
		JOINT Chest
		{
			OFFSET 0.000000 0.000000 0.152175
			CHANNELS 6 Xposition Yposition Zposition Xrotation Yrotation Zrotation
			JOINT Neck
			{
				OFFSET 0.000000 0.000000 0.337083
				CHANNELS 6 Xposition Yposition Zposition Xrotation Yrotation Zrotation
				JOINT Head
				{
					OFFSET 0.000000 0.000000 0.150550
					CHANNELS 3 Xrotation Yrotation Zrotation
					End Site
					{
						OFFSET 0.000000 0.000000 0.164719
					}
				}
			}
			JOINT RightShoulder
			{
				OFFSET -0.043277 0.000000 0.228616
				CHANNELS 6 Xposition Yposition Zposition Xrotation Yrotation Zrotation
				JOINT RightArm
				{
					OFFSET -0.105461 0.000000 0.000004
					CHANNELS 6 Xposition Yposition Zposition Xrotation Yrotation Zrotation
					JOINT RightForeArm
					{
						OFFSET -0.247377 0.000000 0.000009
						CHANNELS 6 Xposition Yposition Zposition Xrotation Yrotation Zrotation
						JOINT RightHand
						{
							OFFSET -0.262149 0.000000 0.000009
							CHANNELS 6 Xposition Yposition Zposition Xrotation Yrotation Zrotation
							JOINT RightHandIndex1
							{
								OFFSET -0.082535 -0.029415 0.000003
								CHANNELS 3 Xrotation Yrotation Zrotation
								JOINT RightHandIndex2
								{
									OFFSET -0.033301 -0.004409 0.000001
									CHANNELS 3 Xrotation Yrotation Zrotation
									JOINT RightHandIndex3
									{
										OFFSET -0.025492 -0.003784 0.000001
										CHANNELS 3 Xrotation Yrotation Zrotation
										End Site
										{
											OFFSET -0.043285 -0.003344 0.000001
										}
									}
								}
							}
							JOINT RightHandMiddle1
							{
								OFFSET -0.088557 -0.008155 0.000003
								CHANNELS 3 Xrotation Yrotation Zrotation
								JOINT RightHandMiddle2
								{
									OFFSET -0.034042 -0.001186 0.000001
									CHANNELS 3 Xrotation Yrotation Zrotation
									JOINT RightHandMiddle3
									{
										OFFSET -0.026773 -0.000599 0.000000
										CHANNELS 3 Xrotation Yrotation Zrotation
										End Site
										{
											OFFSET -0.052615 -0.002366 0.000002
										}
									}
								}
							}
							JOINT RightHandRing1
							{
								OFFSET -0.085632 0.009333 0.000003
								CHANNELS 3 Xrotation Yrotation Zrotation
								JOINT RightHandRing2
								{
									OFFSET -0.029113 0.002339 0.000001
									CHANNELS 3 Xrotation Yrotation Zrotation
									JOINT RightHandRing3
									{
										OFFSET -0.027037 0.001866 0.000001
										CHANNELS 3 Xrotation Yrotation Zrotation
										End Site
										{
											OFFSET -0.048310 0.000687 0.000001
										}
									}
								}
							}
							JOINT RightHandPinky1
							{
								OFFSET -0.076599 0.027405 0.000003
								CHANNELS 3 Xrotation Yrotation Zrotation
								JOINT RightHandPinky2
								{
									OFFSET -0.032445 0.007645 0.000002
									CHANNELS 3 Xrotation Yrotation Zrotation
									JOINT RightHandPinky3
									{
										OFFSET -0.019101 0.004136 0.000001
										CHANNELS 3 Xrotation Yrotation Zrotation
										End Site
										{
											OFFSET -0.036478 0.003212 0.000001
										}
									}
								}
							}
							JOINT RightHandThumb1
							{
								OFFSET -0.018894 -0.029252 0.000001
								CHANNELS 3 Xrotation Yrotation Zrotation
								JOINT RightHandThumb2
								{
									OFFSET -0.024834 -0.023384 0.000001
									CHANNELS 3 Xrotation Yrotation Zrotation
									JOINT RightHandThumb3
									{
										OFFSET -0.024730 -0.013883 0.000001
										CHANNELS 3 Xrotation Yrotation Zrotation
										End Site
										{
											OFFSET -0.036269 -0.015625 0.000001
										}
									}
								}
							}
						}
					}
				}
			}
			JOINT LeftShoulder
			{
				OFFSET 0.043336 0.000000 0.228616
				CHANNELS 6 Xposition Yposition Zposition Xrotation Yrotation Zrotation
				JOINT LeftArm
				{
					OFFSET 0.105402 0.000000 0.000018
					CHANNELS 6 Xposition Yposition Zposition Xrotation Yrotation Zrotation
					JOINT LeftForeArm
					{
						OFFSET 0.248086 -0.001017 0.000042
						CHANNELS 6 Xposition Yposition Zposition Xrotation Yrotation Zrotation
						JOINT LeftHand
						{
							OFFSET 0.262001 0.000000 0.000044
							CHANNELS 6 Xposition Yposition Zposition Xrotation Yrotation Zrotation
							JOINT LeftHandIndex1
							{
								OFFSET 0.082507 -0.030061 -0.000028
								CHANNELS 3 Xrotation Yrotation Zrotation
								JOINT LeftHandIndex2
								{
									OFFSET 0.033280 -0.004602 0.000048
									CHANNELS 3 Xrotation Yrotation Zrotation
									JOINT LeftHandIndex3
									{
										OFFSET 0.025464 -0.003944 0.000004
										CHANNELS 3 Xrotation Yrotation Zrotation
										End Site
										{
											OFFSET 0.043236 -0.003593 0.000007
										}
									}
								}
							}
							JOINT LeftHandMiddle1
							{
								OFFSET 0.088481 -0.008664 0.000015
								CHANNELS 3 Xrotation Yrotation Zrotation
								JOINT LeftHandMiddle2
								{
									OFFSET 0.034019 -0.001373 0.000006
									CHANNELS 3 Xrotation Yrotation Zrotation
									JOINT LeftHandMiddle3
									{
										OFFSET 0.026769 -0.000745 0.000005
										CHANNELS 3 Xrotation Yrotation Zrotation
										End Site
										{
											OFFSET 0.052542 -0.002648 0.000009
										}
									}
								}
							}
							JOINT LeftHandRing1
							{
								OFFSET 0.085626 0.008930 0.000014
								CHANNELS 3 Xrotation Yrotation Zrotation
								JOINT LeftHandRing2
								{
									OFFSET 0.029129 0.002221 0.000005
									CHANNELS 3 Xrotation Yrotation Zrotation
									JOINT LeftHandRing3
									{
										OFFSET 0.027049 0.001739 0.000005
										CHANNELS 3 Xrotation Yrotation Zrotation
										End Site
										{
											OFFSET 0.048215 0.000435 0.000008
										}
									}
								}
							}
							JOINT LeftHandPinky1
							{
								OFFSET 0.076700 0.027168 0.000013
								CHANNELS 3 Xrotation Yrotation Zrotation
								JOINT LeftHandPinky2
								{
									OFFSET 0.032485 0.007539 0.000005
									CHANNELS 3 Xrotation Yrotation Zrotation
									JOINT LeftHandPinky3
									{
										OFFSET 0.019121 0.004064 0.000003
										CHANNELS 3 Xrotation Yrotation Zrotation
										End Site
										{
											OFFSET 0.036502 0.003032 0.000006
										}
									}
								}
							}
							JOINT LeftHandThumb1
							{
								OFFSET 0.018711 -0.029540 0.000003
								CHANNELS 3 Xrotation Yrotation Zrotation
								JOINT LeftHandThumb2
								{
									OFFSET 0.024721 -0.023664 0.000004
									CHANNELS 3 Xrotation Yrotation Zrotation
									JOINT LeftHandThumb3
									{
										OFFSET 0.024649 -0.014096 0.000004
										CHANNELS 3 Xrotation Yrotation Zrotation
										End Site
										{
											OFFSET 0.036243 -0.015928 0.000006
										}
									}
								}
							}
						}
					}
				}
			}
		}
	}
	JOINT RightUpLeg
	{
		OFFSET -0.115000 0.000000 -0.015985
		CHANNELS 6 Xposition Yposition Zposition Xrotation Yrotation Zrotation
		JOINT RightLeg
		{
			OFFSET 0.000000 0.000000 -0.417140
			CHANNELS 6 Xposition Yposition Zposition Xrotation Yrotation Zrotation
			JOINT RightFoot
			{
				OFFSET 0.000000 0.000000 -0.438030
				CHANNELS 3 Xrotation Yrotation Zrotation
				JOINT RightToeBase
				{
					OFFSET 0.000000 -0.104620 -0.083528
					CHANNELS 6 Xposition Yposition Zposition Xrotation Yrotation Zrotation
					End Site
					{
						OFFSET 0.000000 -0.133871 -0.000951
					}
				}
			}
		}
	}
	JOINT LeftUpLeg
	{
		OFFSET 0.115000 0.000000 -0.015985
		CHANNELS 6 Xposition Yposition Zposition Xrotation Yrotation Zrotation
		JOINT LeftLeg
		{
			OFFSET 0.000000 0.000000 -0.417140
			CHANNELS 6 Xposition Yposition Zposition Xrotation Yrotation Zrotation
			JOINT LeftFoot
			{
				OFFSET 0.000000 0.000000 -0.438030
				CHANNELS 3 Xrotation Yrotation Zrotation
				JOINT LeftToeBase
				{
					OFFSET 0.000000 -0.104620 -0.083528
					CHANNELS 6 Xposition Yposition Zposition Xrotation Yrotation Zrotation
					End Site
					{
						OFFSET 0.000000 -0.133871 -0.000951
					}
				}
			}
		}
	}
}
MOTION
Frames: 4
Frame Time:	0.016667
0.0248 -0.7907 0.9229 -9.7919 2.7214 -13.4983 0 -0.0004 0.0975 11.3258 2.2287 -0.0096 0.0001 -0.0015 0.1503 15.3121 3.1101 0.5326 0 0.0016 0.2899 -0.0406 0.3215 5.263 -33.9112 -1.7382 4.6882 -0.0433 0.0016 0.2354 8.8132 -21.7401 -1.5298 -0.1055 0 0 13.9572 -43.5213 19.6105 -0.2669 0 0 -5.404 -4.9406 47.6525 -0.2829 0 0 25.7355 6.6468 18.2197 23.3452 -61.0552 28.6348 29.2906 -78.104 26.4772 9.4936 -64.6743 7.5691 6.4226 -55.8457 8.7749 3.0172 -74.749 2.636 2.5355 -72.6504 2.1737 -10.0635 -66.8885 -4.6516 -10.3988 -75.9046 -9.185 -15.917 -79.9743 -14.5851 -7.1035 -47.7708 2.8852 -23.4041 -64.0306 -15.2909 -25.3756 -65.5828 -17.0751 12.1444 -22.2067 -0.2817 -0.004 0.0019 -24.4267 -0.0042 0.0029 -51.7716 0.0433 0.0016 0.2354 8.5503 21.7819 5.5027 0.1054 0 0 9.5464 41.3254 -5.3322 0.2675 -0.0011 0 -4.8215 4.9677 -50.2725 0.2825 0 0 24.0467 -8.1778 -11.0876 28.056 63.3851 -33.3444 35.6238 79.2804 -32.5853 9.9417 64.7135 -7.9293 11.7583 63.5115 -16.1032 5.1188 78.0611 -4.6068 4.097 75.7426 -3.6115 -9.0586 66.9165 3.3647 -10.3807 75.9946 8.9915 -15.7816 80.086 14.2786 -10.106 61.1911 -6.7856 -29.2647 68.2508 20.6172 -34.0972 70.6839 25.144 12.3349 22.3536 1.2003 -0.004 -0.0009 25.2306 -0.0072 -0.0043 52.9867 -0.115 0 -0.016 21.3758 3.4337 -9.6947 0 0 -0.4171 23.4223 -0.3389 0.0649 -24.3336 -5.8325 -7.3978 0 -0.1046 -0.0835 -5.8218 0.0086 -0.0026 0.115 0 -0.016 -19.5692 -6.0215 7.5522 0 0 -0.4171 41.6008 0.9596 -0.3672 -9.3981 -1.7945 10.0608 0 -0.1046 -0.0835 -1.6196 0.0007 -0.0037 
0.0295 -0.8068 0.9252 -10.0216 2.7096 -13.4905 0 -0.0004 0.0974 11.3036 2.1486 -0.0269 0.0001 -0.0014 0.1503 15.3043 2.993 0.4378 0 0.0016 0.2899 0.0243 0.2942 5.3124 -33.7061 -1.5651 4.8048 -0.0433 0.0016 0.2354 8.883 -21.8582 -1.7756 -0.1055 0 0 13.8756 -43.5042 19.2761 -0.267 0 0 -5.3719 -4.8912 46.3716 -0.2829 0 0 25.8863 6.984 18.633 23.3452 -61.0553 28.6348 29.291 -78.104 26.4774 9.4936 -64.6744 7.5691 6.4244 -55.8484 8.7789 3.0186 -74.7541 2.6373 2.5373 -72.6586 2.1753 -10.0634 -66.8886 -4.6513 -10.399 -75.9048 -9.1852 -15.9171 -79.9743 -14.5853 -7.1018 -47.7755 2.9032 -23.4109 -64.0363 -15.2971 -25.3914 -65.5945 -17.0895 12.1444 -22.2067 -0.2817 -0.004 0.0019 -24.4268 -0.0042 0.0029 -51.7716 0.0433 0.0016 0.2354 8.6413 21.884 5.4271 0.1054 0 0 9.7307 41.5775 -5.5818 0.2675 -0.0011 0 -4.7056 4.9974 -50.0515 0.2826 0 0 24.2424 -8.6941 -11.1149 28.056 63.3852 -33.3444 35.6238 79.2804 -32.5853 9.9417 64.7136 -7.9293 11.7579 63.5111 -16.1027 5.1181 78.06 -4.6061 4.0969 75.742 -3.6114 -9.0587 66.9165 3.3648 -10.3807 75.9946 8.9914 -15.7817 80.086 14.2785 -10.1061 61.1911 -6.7855 -29.2647 68.2508 20.6172 -34.0971 70.6839 25.144 12.3349 22.3536 1.2003 -0.004 -0.0009 25.2306 -0.0072 -0.0043 52.9867 -0.115 0 -0.016 21.1687 4.2126 -9.9148 0 0 -0.4171 25.6164 -0.327 0.0609 -22.215 -6.5949 -7.4173 0 -0.1046 -0.0835 -7.4883 0.0129 0.0049 0.115 0 -0.016 -18.2459 -5.3534 7.6804 0 0 -0.4171 41.4216 1.002 -0.379 -10.0031 -2.4281 10.1381 0 -0.1046 -0.0835 -1.8137 0.0006 -0.0022 
0.0327 -0.8179 0.9279 -10.0812 2.7518 -13.4787 0 -0.0004 0.0974 11.3559 2.1121 -0.0393 0.0001 -0.0014 0.1502 15.3791 2.9345 0.3745 0 0.0015 0.29 0.0366 0.2649 5.3363 -33.7695 -1.5541 4.8446 -0.0433 0.0015 0.2354 8.9477 -21.9578 -1.8896 -0.1055 0 0 13.8683 -43.593 19.3333 -0.267 0 0 -5.4372 -4.8809 45.1679 -0.283 0 0 25.9113 7.415 18.8666 23.3453 -61.0553 28.6348 29.2911 -78.104 26.4775 9.4937 -64.6744 7.5692 6.4265 -55.8515 8.7834 3.0202 -74.7599 2.6388 2.5391 -72.6679 2.177 -10.0632 -66.8887 -4.6509 -10.399 -75.9049 -9.1853 -15.9175 -79.9745 -14.5857 -7.0999 -47.7806 2.9235 -23.4186 -64.0428 -15.304 -25.4094 -65.6077 -17.1059 12.1444 -22.2067 -0.2817 -0.004 0.0019 -24.4268 -0.0042 0.0029 -51.7716 0.0433 0.0015 0.2354 8.6172 21.8501 5.2889 0.1054 0 0 9.7861 41.6063 -6.0775 0.2676 -0.0011 0 -4.8182 4.9377 -49.9648 0.2826 0 0 24.2327 -8.8493 -10.8162 28.056 63.3851 -33.3444 35.6237 79.2804 -32.5852 9.9417 64.7135 -7.9294 11.7575 63.5107 -16.102 5.1174 78.0584 -4.6052 4.0967 75.7413 -3.6112 -9.0586 66.9165 3.3647 -10.3808 75.9945 8.9915 -15.7817 80.086 14.2786 -10.1061 61.1911 -6.7855 -29.2647 68.2508 20.6172 -34.0971 70.684 25.144 12.3349 22.3536 1.2003 -0.004 -0.0009 25.2306 -0.0072 -0.0043 52.9867 -0.115 0 -0.016 20.0853 4.7816 -10.0856 0 0 -0.4171 28.5826 -0.3459 0.0736 -20.1577 -6.802 -7.4685 0 -0.1046 -0.0835 -8.9522 0.0149 0.0112 0.115 0 -0.016 -17.2831 -4.9896 7.806 0 0 -0.4171 41.0835 1.019 -0.381 -10.4951 -2.6704 10.1576 0 -0.1046 -0.0835 -1.8699 0.0003 -0.0011 
0.0363 -0.833 0.9313 -10.234 3.1925 -13.4409 0 -0.0004 0.0974 11.4256 1.8583 0.0276 0 -0.0014 0.1502 15.4876 2.5795 0.5367 0 0.0015 0.29 0.0822 0.2249 5.2476 -33.7884 -1.4484 4.8695 -0.0433 0.0015 0.2355 9.0164 -22.0779 -2.1582 -0.1055 0 0 13.6734 -43.6579 18.8938 -0.2671 0 0 -5.5169 -4.8962 43.8324 -0.283 0 0 25.8003 7.896 18.907 23.3453 -61.0553 28.6348 29.2914 -78.1041 26.4776 9.4938 -64.6744 7.5693 6.4276 -55.8532 8.7858 3.0209 -74.7629 2.6395 2.5401 -72.6727 2.1779 -10.0631 -66.8888 -4.6507 -10.3991 -75.905 -9.1854 -15.9174 -79.9746 -14.5857 -7.0989 -47.7833 2.9339 -23.4224 -64.046 -15.3074 -25.4187 -65.6145 -17.1144 12.1444 -22.2067 -0.2817 -0.0039 0.0019 -24.4267 -0.0042 0.0029 -51.7716 0.0433 0.0015 0.2355 8.6198 21.8357 5.0854 0.1054 0 0 9.9186 41.743 -6.6118 0.2675 -0.0011 0 -4.867 4.9054 -50.2084 0.2825 0 0 24.2692 -8.8532 -10.1379 28.056 63.3851 -33.3444 35.6239 79.2804 -32.5853 9.9417 64.7136 -7.9294 11.7572 63.5104 -16.1016 5.1169 78.0576 -4.6048 4.0966 75.741 -3.611 -9.0586 66.9165 3.3647 -10.3807 75.9946 8.9914 -15.7816 80.086 14.2786 -10.106 61.191 -6.7855 -29.2646 68.2507 20.6171 -34.097 70.6839 25.144 12.3349 22.3536 1.2004 -0.004 -0.0009 25.2305 -0.0073 -0.0043 52.9867 -0.115 0 -0.016 18.4984 5.1149 -10.1005 0 0 -0.4171 32.8747 -0.3618 0.0888 -17.0776 -6.3483 -7.9025 0 -0.1046 -0.0835 -10.537 0.0223 0.0278 0.115 0 -0.016 -15.6276 -4.9145 7.9861 0 0 -0.4171 40.3549 0.999 -0.3651 -11.3176 -2.4612 10.0828 0 -0.1046 -0.0835 -1.86 0.0002 -0.0006 
